<svg xmlns="http://www.w3.org/2000/svg" width="1600" height="420" viewBox="0 0 1600 420">
  <rect x="0" y="0" width="1600" height="420" rx="34" fill="#fff"/>
  <defs>
    <marker id="arrow" viewBox="0 0 10 10" refX="9" refY="5" markerWidth="8" markerHeight="8" orient="auto-start-reverse">
      <path d="M0,0 L10,5 L0,10 Z" fill="#555"/>
    </marker>
  </defs>
  <g font-family="Arial, 'Noto Sans CJK SC', 'Microsoft YaHei', 'PingFang SC', sans-serif" font-weight="700" font-size="32" text-anchor="middle" fill="#111">
    <rect x="50" y="90" width="320" height="170" fill="#e9e9e9"/>
    <text x="210" y="185">大学—产业互动</text>

    <rect x="430" y="90" width="320" height="170" fill="#e9e9e9"/>
    <text x="590" y="145">研究</text>
    <text x="590" y="185">创新</text>
    <text x="590" y="225">毕业生</text>

    <rect x="810" y="90" width="320" height="170" fill="#e9e9e9"/>
    <text x="970" y="165">社会影响</text>
    <text x="970" y="205">声誉</text>

    <rect x="1190" y="90" width="320" height="170" fill="#e9e9e9"/>
    <text x="1350" y="145">吸引人才</text>
    <text x="1350" y="185">政府资助</text>
    <text x="1350" y="225">捐赠</text>
  </g>

  <g fill="none" stroke="#555" stroke-width="6" stroke-linecap="round" stroke-linejoin="round" marker-end="url(#arrow)">
    <path d="M370 175 H430"/>
    <path d="M750 175 H810"/>
    <path d="M1130 175 H1190"/>
    <path d="M1345 90 V42 Q1345 36 1339 36 H592 Q586 36 586 42 V88"/>
    <path d="M1350 260 V318 Q1350 330 1338 330 H210 Q198 330 198 318 V262"/>
  </g>
</svg>
